<?xml version="1.0" encoding="iso-8859-1"?>
<!-- Generator: Adobe Illustrator 19.0.0, SVG Export Plug-In . SVG Version: 6.00 Build 0)  -->
<svg xmlns="http://www.w3.org/2000/svg" xmlns:xlink="http://www.w3.org/1999/xlink" version="1.1" id="Layer_1" x="0px" y="0px" viewBox="0 0 512 512" style="enable-background:new 0 0 512 512;" xml:space="preserve" width="512" height="512">
<g>
	<g>
		<g>
			<g>
				<g>
					<g>
						<path style="fill:#FF9C43;" d="M444.318,129.728c-3.968-0.355-7.728,0.392-11.016,1.969        c-5.174,2.481-11.321,1.263-15.543-2.623c-4.623-4.256-10.879-6.765-17.723-6.48c-12.471,0.52-22.752,10.575-23.527,23.034        c-0.891,14.316,10.457,26.205,24.581,26.205c9.439,0,32.467,0,41.289,0c12.445,0,22.374-10.777,20.962-23.507        C462.25,138.486,454.179,130.611,444.318,129.728z"/>
					</g>
					<g>
						<path style="fill:#CC966A;" d="M81.073,483.57H74.88c-6.913,0-12.518-5.604-12.518-12.518V338.056h31.229v132.996        C93.591,477.966,87.986,483.57,81.073,483.57z"/>
						<path style="fill:#CC966A;" d="M437.632,483.709h-6.193c-6.913,0-12.518-5.604-12.518-12.518V338.195h31.229v132.996        C450.15,478.105,444.545,483.709,437.632,483.709z"/>
					</g>
					<g>
						<g>
							<path style="fill:#345863;" d="M468.351,422.58H43.674c-11.097,0-20.092-8.995-20.092-20.092v-145.96         c0-11.097,8.995-20.092,20.092-20.092h424.678c11.096,0,20.092,8.995,20.092,20.092v145.96         C488.443,413.584,479.448,422.58,468.351,422.58z"/>
						</g>
					</g>
					<g>
						<path style="fill:#1E4751;" d="M468.351,236.436h-31.559v166.052c0,11.097-8.995,20.092-20.092,20.092h51.651        c11.097,0,20.092-8.995,20.092-20.092v-145.96C488.443,245.431,479.448,236.436,468.351,236.436z"/>
					</g>
				</g>
			</g>
		</g>
		<path style="fill:#E02B3D;" d="M49.407,323.153L49.407,323.153c-14.263,0-25.826-11.563-25.826-25.826v-35.206h51.651v35.206    C75.233,311.591,63.67,323.153,49.407,323.153z"/>
		<path style="fill:#F43B45;" d="M101.059,323.153L101.059,323.153c-14.263,0-25.826-11.563-25.826-25.826v-35.206h51.651v35.206    C126.884,311.591,115.322,323.153,101.059,323.153z"/>
		<path style="fill:#E02B3D;" d="M152.71,323.153L152.71,323.153c-14.263,0-25.826-11.563-25.826-25.826v-35.206h51.651v35.206    C178.536,311.591,166.973,323.153,152.71,323.153z"/>
		<path style="fill:#F43B45;" d="M204.361,323.153L204.361,323.153c-14.263,0-25.826-11.563-25.826-25.826v-35.206h51.651v35.206    C230.187,311.591,218.624,323.153,204.361,323.153z"/>
		<path style="fill:#E02B3D;" d="M256.013,323.153L256.013,323.153c-14.263,0-25.826-11.563-25.826-25.826v-35.206h51.651v35.206    C281.838,311.591,270.276,323.153,256.013,323.153z"/>
		<path style="fill:#F43B45;" d="M307.664,323.153L307.664,323.153c-14.263,0-25.826-11.563-25.826-25.826v-35.206h51.651v35.206    C333.489,311.591,321.927,323.153,307.664,323.153z"/>
		<path style="fill:#E02B3D;" d="M359.315,323.153L359.315,323.153c-14.263,0-25.826-11.563-25.826-25.826v-35.206h51.651v35.206    C385.141,311.591,373.578,323.153,359.315,323.153z"/>
		<path style="fill:#F43B45;" d="M410.966,323.153L410.966,323.153c-14.263,0-25.826-11.563-25.826-25.826v-35.206h51.651v35.206    C436.792,311.591,425.23,323.153,410.966,323.153z"/>
		<path style="fill:#E02B3D;" d="M462.618,323.153L462.618,323.153c-14.263,0-25.826-11.563-25.826-25.826v-35.206h51.651v35.206    C488.443,311.591,476.881,323.153,462.618,323.153z"/>
	</g>
	<g>
		<g>
			<path style="fill:#EDEDED;" d="M124.349,67.594c-52.328,0-94.749,44.255-94.749,98.847h189.498     C219.098,111.85,176.677,67.594,124.349,67.594z"/>
		</g>
		<path style="fill:#D6D6D6;" d="M124.349,67.594c-8.926,0-17.562,1.29-25.75,3.697c39.815,11.704,68.999,49.871,68.999,95.151h51.5    C219.098,111.85,176.677,67.594,124.349,67.594z"/>
		<g>
			<path style="fill:#EDEDED;" d="M197.41,204.657H51.288c-5.374,0-10.068-3.634-11.415-8.836l-5.242-20.248h179.434l-5.242,20.248     C207.478,201.023,202.784,204.657,197.41,204.657z"/>
			<path style="fill:#D6D6D6;" d="M219.577,177.789H29.121c-6.267,0-11.348-5.081-11.348-11.348v0     c0-6.267,5.081-11.348,11.348-11.348h190.455c6.267,0,11.348,5.081,11.348,11.348v0     C230.924,172.708,225.844,177.789,219.577,177.789z"/>
		</g>
	</g>
	<g>
		<g>
			<g>
				<path style="fill:#EDEDED;" d="M446.819,204.657H300.697c-5.374,0-10.068-3.634-11.415-8.836l-5.242-20.248h179.434      l-5.242,20.248C456.887,201.023,452.193,204.657,446.819,204.657z"/>
				<path style="fill:#D6D6D6;" d="M468.986,177.789H278.53c-6.267,0-11.348-5.081-11.348-11.348v0      c0-6.267,5.081-11.348,11.348-11.348h190.455c6.267,0,11.348,5.081,11.348,11.348v0      C480.333,172.708,475.253,177.789,468.986,177.789z"/>
			</g>
		</g>
	</g>
	<path style="fill:#EDEDED;" d="M451.839,89.091c1.916-0.734,2.737-3.005,1.73-4.793c-23.501-41.726-73.127-61.548-117.361-44.595   c-45.427,17.411-69.16,67.474-56.574,115.39L451.839,89.091z"/>
	<path style="fill:#D6D6D6;" d="M453.569,84.298c-23.5-41.726-73.127-61.548-117.361-44.594   c-9.588,3.675-18.195,8.818-25.713,15.074c38.388-4.616,76.983,15.607,96.418,51.532l44.926-17.219   C453.756,88.357,454.576,86.086,453.569,84.298z"/>
	<path style="fill:#F43B45;" d="M491.657,262.121H20.343c-7.093,0-12.843-5.75-12.843-12.843v0c0-7.093,5.75-12.843,12.843-12.843   h471.314c7.093,0,12.843,5.75,12.843,12.843v0C504.5,256.372,498.75,262.121,491.657,262.121z"/>
	<g>
		<path d="M512,249.278c0-11.217-9.126-20.343-20.343-20.343h-40.459c-3.957-4.559-6.802-10.514-8.096-16.778h3.717    c8.792,0,16.472-5.945,18.675-14.457l3.213-12.411h0.279c10.393,0,18.848-8.455,18.848-18.848c0-9.776-7.481-17.837-17.019-18.759    c-0.006-0.061-0.013-0.122-0.019-0.183c-1.488-13.42-12.342-24.035-25.808-25.24c-5.155-0.463-10.314,0.464-14.929,2.676    c-2.25,1.078-5.152,0.524-7.22-1.378c-5.12-4.713-11.487-7.585-18.295-8.306l49.98-19.156c0.001,0,0.002-0.001,0.003-0.001    c2.952-1.133,5.26-3.49,6.332-6.467c1.071-2.975,0.795-6.259-0.754-9.009c-12.297-21.834-31.738-38.746-54.741-47.619    c-20.959-8.086-43.671-8.995-64.733-2.715l-1.792-4.675c-1.482-3.867-5.821-5.801-9.688-4.318    c-3.868,1.482-5.802,5.819-4.319,9.688l1.79,4.672c-41.86,19.775-64.859,66.491-55.971,113.672    c-6.469,2.989-10.968,9.539-10.968,17.12c0,10.393,8.455,18.848,18.848,18.848h0.279l3.213,12.41    c2.203,8.513,9.883,14.458,18.676,14.458h9.12c-1.294,6.264-4.139,12.219-8.096,16.778H197.57    c-3.957-4.559-6.802-10.514-8.096-16.778h7.936c8.793,0,16.473-5.945,18.676-14.457l3.213-12.411h0.278    c10.393,0,18.848-8.455,18.848-18.848c0-8.46-5.603-15.636-13.294-18.013c-7.88-48.205-46.486-84.521-93.281-88.052v-5.003    c0-4.143-3.358-7.5-7.5-7.5s-7.5,3.357-7.5,7.5v5.003c-46.795,3.531-85.401,39.847-93.282,88.052    c-7.691,2.376-13.294,9.552-13.294,18.013c0,10.393,8.455,18.848,18.848,18.848H29.4l3.213,12.41    c2.203,8.513,9.883,14.458,18.675,14.458h4.901c-1.294,6.264-4.139,12.219-8.096,16.778h-27.75C9.126,228.935,0,238.061,0,249.278    c0,9.757,6.903,17.93,16.082,19.894v28.155c0,18.376,14.95,33.325,33.326,33.325c10.404,0,19.71-4.793,25.826-12.286    c6.116,7.493,15.421,12.286,25.826,12.286s19.71-4.793,25.826-12.286c6.116,7.493,15.421,12.286,25.826,12.286    s19.71-4.793,25.826-12.286c6.116,7.493,15.421,12.286,25.826,12.286s19.71-4.793,25.826-12.286    c6.116,7.493,15.421,12.286,25.826,12.286s19.71-4.793,25.826-12.286c6.116,7.493,15.421,12.286,25.826,12.286    c10.404,0,19.709-4.793,25.825-12.286c6.116,7.493,15.421,12.286,25.826,12.286s19.71-4.793,25.826-12.286    c6.116,7.493,15.421,12.286,25.826,12.286s19.71-4.793,25.826-12.286c6.116,7.493,15.421,12.286,25.826,12.286    c18.376,0,33.326-14.949,33.326-33.325v-28.161C505.109,267.194,512,259.026,512,249.278z M436.544,138.46    c2.213-1.061,4.604-1.481,7.105-1.262c5.753,0.515,10.648,4.867,11.966,10.396h-71.65c-0.012-0.498-0.002-0.998,0.029-1.5    c0.536-8.615,7.72-15.646,16.355-16.006c4.588-0.179,8.966,1.407,12.33,4.505C419.325,140.709,428.692,142.226,436.544,138.46z     M369.023,145.162c-0.051,0.813-0.071,1.624-0.061,2.432h-48.805l57.216-21.929C372.585,130.916,369.486,137.725,369.023,145.162z     M338.893,46.707c9.634-3.692,19.793-5.536,30.006-5.536c10.476,0,21.006,1.942,31.066,5.822    c18.289,7.056,33.969,20.048,44.601,36.854l-159.458,61.116C277.92,102.877,300.004,61.612,338.893,46.707z M274.683,166.441    c0-2.122,1.726-3.848,3.848-3.848h99.065c0.054,0.001,0.109,0.002,0.163,0.002c0.055,0,0.109-0.001,0.164-0.002h84.937    c0.118,0.003,0.236,0.003,0.353,0h5.774c2.122,0,3.848,1.726,3.848,3.848s-1.726,3.848-3.848,3.848h-5.919    c-0.118-0.003-0.235-0.003-0.352,0H284.657c-0.029,0-0.059,0-0.089,0h-6.038C276.409,170.289,274.683,168.563,274.683,166.441z     M296.543,193.94l-2.239-8.651h158.909l-2.24,8.652c-0.49,1.894-2.198,3.216-4.154,3.216H300.697    C298.741,197.157,297.033,195.835,296.543,193.94z M325.049,212.157H427.87c0.856,5.872,2.694,11.584,5.369,16.778H319.68    C322.355,223.741,324.193,218.029,325.049,212.157z M124.349,75.095c41.649,0,77.038,30.625,85.387,72.499H38.962    C47.312,105.72,82.701,75.095,124.349,75.095z M25.273,166.441c0-2.122,1.726-3.848,3.848-3.848H218.38    c0.028,0,0.055,0.001,0.083,0.001c0.023,0,0.046-0.001,0.068-0.001h1.045c2.122,0,3.848,1.726,3.848,3.848    s-1.726,3.848-3.848,3.848h-5.919c-0.118-0.003-0.235-0.003-0.352,0H35.253c-0.033,0-0.065,0-0.098,0h-6.033    C27,170.289,25.273,168.563,25.273,166.441z M47.134,193.94l-2.24-8.651h158.909l-2.24,8.652c-0.49,1.894-2.198,3.216-4.154,3.216    H51.288C49.333,197.157,47.625,195.835,47.134,193.94z M71.421,212.157h102.821c0.856,5.872,2.694,11.584,5.369,16.778H66.052    C68.727,223.741,70.565,218.029,71.421,212.157z M49.407,315.653c-10.105,0-18.326-8.221-18.326-18.325v-27.706h36.651v27.706    C67.733,307.433,59.512,315.653,49.407,315.653z M101.059,315.653c-10.105,0-18.326-8.221-18.326-18.325v-27.706h36.651v27.706    C119.384,307.433,111.164,315.653,101.059,315.653z M152.71,315.653c-10.105,0-18.326-8.221-18.326-18.325v-27.706h36.651v27.706    C171.036,307.433,162.815,315.653,152.71,315.653z M204.361,315.653c-10.105,0-18.326-8.221-18.326-18.325v-27.706h36.651v27.706    C222.687,307.433,214.466,315.653,204.361,315.653z M256.013,315.653c-10.105,0-18.326-8.221-18.326-18.325v-27.706h36.651v27.706    C274.338,307.433,266.118,315.653,256.013,315.653z M307.664,315.653c-10.104,0-18.325-8.221-18.325-18.325v-27.706h36.651v27.706    C325.989,307.433,317.769,315.653,307.664,315.653z M359.315,315.653c-10.105,0-18.326-8.221-18.326-18.325v-27.706h36.651v27.706    C377.641,307.433,369.42,315.653,359.315,315.653z M410.966,315.653c-10.105,0-18.326-8.221-18.326-18.325v-27.706h36.651v27.706    C429.292,307.433,421.071,315.653,410.966,315.653z M462.618,315.653c-10.105,0-18.326-8.221-18.326-18.325v-27.706h36.651v27.706    C480.943,307.433,472.723,315.653,462.618,315.653z M491.657,254.622H20.343c-2.946,0-5.343-2.397-5.343-5.344    s2.397-5.343,5.343-5.343h471.314c2.946,0,5.343,2.396,5.343,5.343S494.603,254.622,491.657,254.622z"/>
		<path d="M488.443,333.251c-4.142,0-7.5,3.357-7.5,7.5v61.736c0,6.943-5.648,12.593-12.592,12.593H43.674    c-6.943,0-12.592-5.649-12.592-12.593v-62.153c0-4.143-3.358-7.5-7.5-7.5s-7.5,3.357-7.5,7.5v62.153    c0,15.215,12.378,27.593,27.592,27.593h11.188v40.973c0,11.038,8.98,20.018,20.018,20.018h6.193    c11.038,0,20.018-8.979,20.018-20.018V430.08h310.33v41.111c0,11.038,8.98,20.018,20.018,20.018h6.193    c11.038,0,20.018-8.979,20.018-20.018V430.08h10.702c15.214,0,27.592-12.378,27.592-27.593v-61.736    C495.943,336.608,492.585,333.251,488.443,333.251z M86.091,471.053c0,2.767-2.251,5.018-5.018,5.018H74.88    c-2.767,0-5.018-2.251-5.018-5.018V430.08h16.229V471.053z M442.65,471.191c0,2.767-2.251,5.018-5.018,5.018h-6.193    c-2.767,0-5.018-2.251-5.018-5.018V430.08h16.229V471.191z"/>
	</g>
</g>















</svg>
