<svg id="Capa_1" enable-background="new 0 0 505.08 505.08" height="512" viewBox="0 0 505.08 505.08" width="512" xmlns="http://www.w3.org/2000/svg"><g><path d="m505.08 142.404c0-12.84-20-12.859-20 0v147.081h-123.319c-18.055 0-32.744 14.689-32.744 32.744v100.028c0 12.84 20 12.859 20 0v-65.067c3.919 1.662 8.226 2.582 12.744 2.582h123.319v62.484c0 12.84 20 12.859 20 0zm-156.063 184.625c-.38-8.303 2.715-17.544 12.744-17.544h123.319v30.288h-123.319c-7.027-.001-12.744-5.717-12.744-12.744z"/><path d="m0 422.257c0 12.84 20 12.859 20 0v-62.484h123.319c4.518 0 8.825-.92 12.744-2.582v65.066c0 12.84 20 12.859 20 0 0-33.343 0-66.686 0-100.028 0-18.055-14.689-32.744-32.744-32.744h-123.319v-147.081c0-12.84-20-12.859-20 0zm143.319-82.485h-123.319v-30.288h123.319c17.236.001 17.236 30.288 0 30.288z"/><path d="m300.499 431.149c12.84 0 12.859-20 0-20h-17.193v-207.228h112.601c5.523 0 10-4.477 10-10v-50.288c0-5.523-4.477-10-10-10h-12.643l5.853-18.96c1.934-6.265-2.969-12.95-9.555-12.95h-50.995c-6.557 0-11.498 6.656-9.555 12.95l5.853 18.96h-20.457c-3.49-21.362-20.679-38.167-42.224-41.086v-9.725c0-12.84-20-12.859-20 0v9.784c-21.328 3.096-38.293 19.819-41.758 41.027h-20.826l5.853-18.96c1.934-6.265-2.969-12.95-9.555-12.95h-50.995c-6.557 0-11.498 6.656-9.555 12.95l5.853 18.96h-12.276c-5.523 0-10 4.477-10 10v50.288c0 5.523 4.477 10 10 10h112.601v52.044c0 12.84 20 12.859 20 0v-52.044h21.78v207.228h-21.78v-75.04c0-12.84-20-12.859-20 0v75.04h-17.193c-12.84 0-12.859 20 0 20zm41.62-309.425h23.89l-3.677 11.91h-16.537zm-92.786-9.64h6.165c13.526 0 24.959 9.129 28.462 21.55h-63.089c3.503-12.421 14.937-21.55 28.462-21.55zm-110.877 9.64h23.89l-3.677 11.91h-16.537zm-19.531 62.197v-30.288h266.981v30.288z"/><path d="m224.124 300.941c3.025 4.539 9.337 5.771 13.87 2.76 4.535-3.013 5.772-9.349 2.76-13.87-3.023-4.537-9.34-5.772-13.87-2.76-4.568 3.036-5.736 9.32-2.76 13.87z"/></g></svg>